<?xml version="1.0" standalone="no"?>
<!DOCTYPE svg PUBLIC "-//W3C//DTD SVG 20010904//EN"
 "http://www.w3.org/TR/2001/REC-SVG-20010904/DTD/svg10.dtd">
<svg version="1.0" xmlns="http://www.w3.org/2000/svg"
 width="1356.000000pt" height="794.000000pt" viewBox="0 0 1356.000000 794.000000"
 preserveAspectRatio="xMidYMid meet">

<g transform="translate(0.000000,794.000000) scale(0.100000,-0.100000)"
fill="#000000" stroke="none">
<path d="M8078 6184 c-2 -19 -1 -37 2 -39 3 -2 34 -7 69 -11 69 -8 81 -1 81
47 0 30 -26 39 -105 39 -42 0 -43 -1 -47 -36z"/>
<path d="M7791 6203 c-20 -4 -22 -9 -17 -35 3 -17 6 -35 6 -40 0 -10 131 1
144 12 4 5 5 22 1 39 -6 30 -8 31 -58 30 -29 -1 -63 -4 -76 -6z"/>
<path d="M13112 6185 c-52 -23 -97 -62 -158 -137 l-57 -70 -81 6 c-44 3 -183
11 -309 17 l-227 13 -30 -29 c-52 -50 -46 -55 142 -118 135 -46 289 -115 316
-142 5 -5 -15 -40 -84 -146 l-64 -97 -110 -4 c-107 -3 -111 -4 -135 -32 -14
-16 -25 -33 -25 -37 0 -14 35 -28 148 -63 l107 -32 71 -100 c39 -54 78 -100
87 -102 11 -2 23 9 34 33 17 35 17 39 -5 118 -39 141 -41 127 29 214 34 43 73
90 87 105 l25 27 67 -61 c37 -34 114 -124 171 -200 57 -76 109 -138 116 -138
16 0 53 54 53 79 0 11 -7 35 -15 53 -26 58 -205 515 -205 523 0 5 22 42 49 84
53 83 71 133 71 197 0 29 -5 44 -16 48 -9 3 -16 6 -17 6 -1 -1 -17 -7 -35 -15z"/>
<path d="M8375 6154 c-3 -20 -4 -38 -2 -41 7 -7 137 -27 142 -21 2 2 6 19 7
38 3 34 2 35 -47 46 -84 20 -92 19 -100 -22z"/>
<path d="M7538 6142 c-63 -23 -69 -30 -53 -69 l13 -31 64 19 c35 11 66 23 69
27 3 4 2 22 -3 40 -10 37 -21 38 -90 14z"/>
<path d="M8670 6084 c-17 -42 -12 -49 47 -75 32 -13 61 -25 65 -27 7 -3 38 50
38 66 0 9 -112 62 -131 62 -5 0 -14 -12 -19 -26z"/>
<path d="M7258 6012 c-32 -20 -58 -41 -58 -47 1 -5 10 -21 21 -34 l20 -25 43
23 c81 45 82 46 63 86 -9 19 -20 35 -24 34 -5 0 -34 -17 -65 -37z"/>
<path d="M8934 5934 c-17 -31 -17 -36 -4 -44 8 -4 32 -22 54 -39 21 -17 42
-31 47 -31 4 0 17 13 29 30 l21 29 -58 46 c-32 25 -61 45 -64 45 -3 0 -14 -16
-25 -36z"/>
<path d="M7017 5822 c-26 -26 -47 -52 -47 -58 0 -6 11 -21 24 -33 l25 -23 50
47 c28 26 51 53 51 60 0 11 -41 55 -51 55 -3 0 -26 -22 -52 -48z"/>
<path d="M12099 5693 c-30 -43 -68 -98 -86 -123 -48 -66 -64 -98 -54 -105 6
-3 25 15 43 39 56 75 178 253 178 260 0 3 -6 6 -14 6 -7 0 -38 -35 -67 -77z"/>
<path d="M9163 5741 c-31 -26 -29 -35 14 -89 21 -26 38 -49 39 -50 5 -7 64 32
64 42 0 12 -79 116 -88 116 -4 -1 -17 -9 -29 -19z"/>
<path d="M12136 5481 c-80 -115 -146 -214 -146 -220 0 -6 4 -11 9 -11 12 0
292 397 299 423 13 48 -30 -2 -162 -192z"/>
<path d="M6848 5622 c-9 -9 -27 -38 -42 -64 l-28 -48 36 -17 c20 -9 37 -15 39
-12 2 2 20 28 41 58 37 52 38 55 20 68 -40 30 -51 33 -66 15z"/>
<path d="M9323 5488 c-13 -6 -23 -17 -23 -23 0 -21 49 -125 59 -125 8 0 54 17
69 26 1 0 -11 31 -27 68 -31 67 -39 73 -78 54z"/>
<path d="M6679 5306 c-29 -72 -25 -85 27 -89 25 -2 29 4 51 58 25 65 21 78
-27 90 -24 6 -28 1 -51 -59z"/>
<path d="M12786 5019 c-94 -134 -144 -215 -138 -221 10 -10 19 0 80 89 19 26
78 111 132 188 89 128 104 155 81 155 -4 0 -74 -95 -155 -211z"/>
<path d="M9433 5209 c-38 -11 -38 -11 -16 -89 15 -54 19 -60 42 -60 42 0 54
13 46 51 -12 58 -28 109 -34 108 -3 0 -21 -5 -38 -10z"/>
<path d="M12273 5083 c-66 -93 -134 -191 -194 -278 -18 -26 -24 -43 -18 -50 7
-6 12 -6 17 1 4 6 68 98 143 205 161 230 154 219 136 219 -9 0 -46 -44 -84
-97z"/>
<path d="M13008 5073 c-105 -151 -131 -188 -146 -206 -14 -16 -14 -19 -2 -27
8 -5 15 -8 16 -7 1 1 17 25 36 52 107 155 134 193 152 218 14 19 17 30 9 38
-7 7 -26 -12 -65 -68z"/>
<path d="M12459 5083 c-8 -10 -25 -34 -39 -53 -13 -19 -73 -104 -132 -189 -99
-142 -121 -181 -100 -181 4 0 30 32 57 71 28 38 66 92 85 119 121 169 161 233
153 241 -6 6 -15 3 -24 -8z"/>
<path d="M6608 5073 c-9 -16 -31 -134 -26 -139 3 -3 21 -7 41 -11 l35 -5 11
51 c14 68 14 101 -1 101 -7 0 -23 3 -34 6 -12 3 -24 2 -26 -3z"/>
<path d="M9457 4903 c-3 -4 -3 -38 0 -76 l6 -67 39 0 39 0 -3 73 -3 72 -37 3
c-20 2 -38 -1 -41 -5z"/>
<path d="M6560 4705 c0 -82 7 -93 55 -81 24 6 25 10 25 75 0 63 -2 69 -22 75
-56 14 -58 12 -58 -69z"/>
<path d="M9456 4558 c-11 -93 -10 -95 30 -100 31 -4 37 -1 45 20 5 13 9 48 9
78 l0 54 -39 0 -38 0 -7 -52z"/>
<path d="M11911 4547 c-26 -29 -26 -34 2 -58 29 -24 43 -24 61 3 21 30 21 33
-13 57 l-28 20 -22 -22z"/>
<path d="M6591 4473 c-23 -5 -24 -7 -18 -71 4 -36 11 -70 16 -75 5 -5 23 -6
41 -2 l32 7 -7 67 c-9 88 -7 85 -64 74z"/>
<path d="M11715 4330 l-49 -50 24 -25 c13 -14 29 -25 35 -25 7 0 34 23 60 51
l49 52 -28 23 c-15 13 -30 24 -34 24 -4 0 -30 -22 -57 -50z"/>
<path d="M9421 4273 c-6 -21 -12 -54 -13 -73 -3 -32 -1 -34 34 -40 42 -8 41
-9 58 79 11 61 6 71 -42 71 -23 0 -29 -6 -37 -37z"/>
<path d="M6651 4174 c-21 -9 -31 -19 -28 -28 3 -8 11 -34 18 -57 18 -63 29
-73 65 -57 16 6 30 13 32 14 6 4 -31 119 -42 131 -9 9 -19 8 -45 -3z"/>
<path d="M11505 4110 l-49 -50 24 -25 c13 -14 29 -25 35 -25 7 0 34 23 60 51
l47 50 -23 25 c-12 13 -27 24 -34 24 -6 0 -33 -22 -60 -50z"/>
<path d="M9347 3973 c-30 -96 -30 -90 4 -102 18 -6 36 -11 40 -11 9 0 54 138
48 145 -2 2 -20 6 -40 10 -36 7 -36 7 -52 -42z"/>
<path d="M11291 3911 l-54 -48 19 -26 c10 -15 24 -28 29 -30 6 -3 35 17 65 44
l55 48 -30 30 -30 30 -54 -48z"/>
<path d="M6762 3895 c-17 -8 -32 -19 -32 -25 0 -6 13 -37 30 -69 31 -62 42
-67 84 -36 17 13 17 16 -8 67 -38 80 -37 78 -74 63z"/>
<path d="M11061 3719 c-28 -22 -51 -46 -51 -53 0 -7 11 -22 23 -34 l24 -22 29
21 c16 13 41 34 56 47 l27 25 -20 28 c-11 16 -24 29 -28 29 -5 0 -31 -18 -60
-41z"/>
<path d="M9236 3675 c-16 -36 -27 -67 -25 -69 12 -10 50 -26 62 -26 12 0 67
105 67 129 0 6 -57 31 -71 31 -2 0 -17 -29 -33 -65z"/>
<path d="M6904 3627 l-28 -25 42 -56 c24 -31 47 -56 52 -56 5 0 21 10 35 23
l26 22 -42 55 c-22 30 -45 56 -49 58 -4 2 -20 -8 -36 -21z"/>
<path d="M4270 3560 c0 -43 -6 -40 102 -54 40 -5 48 4 48 53 0 26 -4 29 -46
35 -26 3 -60 6 -75 6 -27 0 -29 -3 -29 -40z"/>
<path d="M4008 3564 c-27 -8 -48 -17 -48 -20 0 -2 6 -19 14 -38 l14 -33 66 16
67 16 -3 35 c-3 31 -6 35 -33 37 -16 1 -51 -5 -77 -13z"/>
<path d="M10820 3544 c-30 -21 -57 -38 -58 -40 -7 -5 32 -64 43 -64 11 0 37
16 92 57 l33 24 -22 29 c-12 17 -24 30 -28 30 -3 0 -30 -16 -60 -36z"/>
<path d="M4575 3548 c-3 -8 -7 -27 -8 -43 -2 -28 0 -29 66 -43 38 -7 70 -12
72 -10 2 2 6 19 10 40 l7 36 -58 12 c-32 7 -64 15 -71 17 -7 3 -15 -1 -18 -9z"/>
<path d="M4860 3444 c-7 -19 -10 -37 -8 -39 10 -11 133 -43 138 -37 16 19 28
62 20 67 -13 8 -121 45 -131 45 -4 0 -13 -16 -19 -36z"/>
<path d="M3741 3430 c-54 -43 -56 -57 -17 -90 13 -10 20 -10 38 4 13 9 38 26
56 37 37 24 38 30 16 64 -22 34 -34 32 -93 -15z"/>
<path d="M9105 3409 c-19 -33 -35 -62 -35 -64 0 -6 57 -35 67 -35 9 0 73 106
73 121 0 8 -51 39 -64 39 -3 0 -21 -27 -41 -61z"/>
<path d="M7102 3397 c-12 -13 -22 -27 -22 -33 0 -10 94 -94 105 -94 10 0 44
43 45 57 0 10 -91 93 -102 93 -3 0 -14 -10 -26 -23z"/>
<path d="M10557 3384 l-57 -35 17 -32 c10 -18 19 -33 20 -35 2 -4 93 43 116
60 18 13 18 15 0 46 -10 17 -22 32 -28 31 -5 0 -36 -16 -68 -35z"/>
<path d="M5146 3348 c-10 -25 -11 -36 -2 -45 14 -15 117 -54 127 -48 4 3 12
19 18 36 l10 30 -65 30 c-36 16 -68 29 -70 29 -2 0 -10 -15 -18 -32z"/>
<path d="M10300 3257 c-71 -35 -71 -34 -58 -65 7 -15 15 -31 19 -35 6 -9 139
47 139 58 0 17 -32 65 -43 64 -6 0 -32 -10 -57 -22z"/>
<path d="M3535 3199 c-19 -33 -35 -62 -35 -64 0 -3 13 -11 30 -20 16 -8 33
-27 36 -40 4 -18 12 -24 23 -21 9 2 40 8 69 11 l52 7 0 38 c0 22 -4 41 -8 44
-4 3 -26 1 -47 -4 -22 -5 -41 -7 -44 -5 -2 3 4 21 15 40 l19 36 -25 19 c-14
11 -30 20 -37 20 -7 0 -28 -27 -48 -61z"/>
<path d="M5422 3225 c-18 -38 -16 -43 31 -66 84 -41 85 -41 102 -9 8 16 15 33
15 37 0 10 -104 63 -124 63 -7 0 -18 -11 -24 -25z"/>
<path d="M7331 3204 c-12 -15 -21 -30 -21 -33 0 -7 111 -76 123 -76 4 0 17 14
28 32 l20 31 -59 36 c-33 20 -62 36 -65 36 -3 0 -15 -12 -26 -26z"/>
<path d="M8940 3158 l-40 -53 32 -29 31 -28 18 23 c11 13 31 41 46 63 l27 38
-23 19 c-35 28 -46 24 -91 -33z"/>
<path d="M3860 3130 l0 -40 75 0 75 0 0 40 0 40 -75 0 -75 0 0 -40z"/>
<path d="M10022 3145 c-34 -12 -65 -25 -67 -27 -3 -3 0 -19 6 -36 7 -21 18
-32 30 -32 18 0 129 38 129 44 0 7 -30 76 -33 75 -1 -1 -30 -11 -65 -24z"/>
<path d="M4167 3143 c-4 -3 -7 -21 -7 -39 0 -30 4 -34 38 -43 93 -26 96 -25
109 10 15 39 12 42 -64 64 -57 17 -67 18 -76 8z"/>
<path d="M5695 3090 c-9 -17 -13 -35 -10 -41 4 -5 33 -23 65 -39 l59 -30 16
29 c8 17 15 34 15 39 0 8 -110 72 -124 72 -3 0 -13 -14 -21 -30z"/>
<path d="M3325 3068 c-27 -10 -54 -23 -58 -28 -10 -9 19 -70 32 -70 5 0 34 10
65 21 57 22 62 30 50 77 -7 26 -23 26 -89 0z"/>
<path d="M7595 3060 c-8 -16 -15 -33 -15 -38 0 -11 88 -51 120 -55 16 -1 25 7
35 31 l14 33 -65 30 c-36 16 -68 29 -70 29 -2 0 -10 -13 -19 -30z"/>
<path d="M9730 3058 c-63 -14 -71 -22 -58 -61 6 -18 12 -33 13 -35 3 -4 130
29 138 37 4 4 2 22 -4 39 -12 35 -17 36 -89 20z"/>
<path d="M4433 2991 l-22 -28 48 -51 47 -50 32 20 c25 16 30 23 22 37 -11 21
-90 101 -99 101 -4 0 -17 -13 -28 -29z"/>
<path d="M9455 2998 c-22 -5 -51 -11 -64 -14 -20 -4 -23 -9 -17 -37 4 -17 10
-35 14 -38 13 -13 137 15 140 32 4 19 -15 69 -25 68 -5 -1 -26 -5 -48 -11z"/>
<path d="M7879 2962 c-17 -44 -8 -55 64 -73 74 -19 76 -18 80 36 2 30 -2 32
-96 54 -36 9 -39 7 -48 -17z"/>
<path d="M3437 2974 c-7 -13 -30 -134 -26 -138 2 -2 20 -6 39 -10 l36 -6 16
67 c9 38 13 71 9 75 -11 12 -68 21 -74 12z"/>
<path d="M5965 2958 c-26 -38 -18 -53 44 -87 32 -17 61 -31 65 -31 10 0 37 60
31 71 -4 5 -33 23 -65 39 l-59 30 -16 -22z"/>
<path d="M8748 2926 l-47 -53 22 -20 c20 -18 32 -20 110 -15 48 2 90 8 93 13
3 5 2 24 -2 44 -5 30 -10 35 -33 35 -16 0 -37 10 -51 25 -13 14 -28 25 -34 25
-6 0 -32 -24 -58 -54z"/>
<path d="M3053 2923 c-29 -20 -53 -41 -53 -48 0 -6 11 -22 24 -34 l24 -23 56
38 c31 20 56 39 56 41 0 13 -36 63 -45 62 -5 0 -34 -16 -62 -36z"/>
<path d="M9133 2951 c-28 -4 -55 -10 -59 -14 -11 -10 10 -72 24 -71 7 1 33 2
60 3 65 2 76 11 68 55 -5 26 -12 36 -24 35 -9 -1 -40 -5 -69 -8z"/>
<path d="M8174 2895 c-3 -20 -3 -40 2 -45 5 -4 38 -10 74 -12 l64 -3 7 35 c9
42 0 50 -56 50 -22 0 -50 3 -62 6 -19 5 -23 1 -29 -31z"/>
<path d="M8477 2903 c-4 -3 -7 -21 -7 -40 l0 -33 81 0 82 0 -7 31 c-3 17 -6
35 -6 40 0 10 -133 12 -143 2z"/>
<path d="M6230 2807 c-11 -17 -20 -34 -20 -37 0 -7 131 -72 135 -68 13 15 33
68 27 71 -4 3 -33 19 -65 36 l-57 31 -20 -33z"/>
<path d="M664 2776 c-109 -51 -174 -151 -174 -269 0 -38 7 -83 15 -104 9 -20
75 -135 147 -256 105 -175 133 -216 143 -205 7 7 72 114 146 238 l134 225 0
100 c0 92 -2 104 -28 147 -35 58 -76 93 -142 124 -70 33 -170 33 -241 0z m190
-149 c101 -58 99 -198 -4 -249 -45 -23 -87 -23 -130 1 -38 20 -80 82 -80 120
0 43 37 106 77 129 48 28 88 27 137 -1z"/>
<path d="M2825 2715 c-50 -58 -51 -71 -2 -96 16 -9 26 -4 63 38 24 26 43 53
44 59 0 11 -41 54 -52 54 -4 0 -28 -25 -53 -55z"/>
<path d="M8528 2732 c-26 -20 -47 -41 -47 -47 0 -5 9 -21 20 -34 23 -28 36
-24 103 33 l39 33 -19 26 c-25 35 -40 33 -96 -11z"/>
<path d="M4597 2747 c-25 -10 -28 -15 -23 -42 3 -16 9 -47 12 -67 6 -36 8 -38
45 -38 38 0 39 0 38 38 -1 46 -21 115 -34 118 -6 1 -23 -3 -38 -9z"/>
<path d="M6500 2674 c-6 -14 -10 -31 -10 -38 0 -15 115 -70 129 -62 10 6 36
65 30 69 -21 13 -122 57 -129 57 -6 0 -15 -12 -20 -26z"/>
<path d="M3386 2636 c-4 -25 -4 -61 0 -82 6 -34 8 -36 37 -30 16 3 34 6 39 6
5 0 8 33 6 73 l-3 72 -36 3 c-36 3 -37 3 -43 -42z"/>
<path d="M8278 2569 l-58 -29 17 -35 c9 -19 21 -35 25 -35 9 0 92 42 116 58
12 8 11 15 -2 41 -9 17 -22 31 -29 31 -6 -1 -38 -14 -69 -31z"/>
<path d="M6775 2550 c-9 -17 -13 -35 -10 -40 6 -10 109 -50 129 -50 12 0 28
35 30 63 1 7 -109 57 -126 57 -4 0 -15 -14 -23 -30z"/>
<path d="M2641 2482 c-23 -31 -41 -62 -41 -67 0 -6 13 -19 29 -28 l30 -18 40
54 c23 30 41 58 41 64 0 5 -13 19 -29 31 l-30 22 -40 -58z"/>
<path d="M7065 2468 c-19 -51 -12 -60 59 -80 38 -10 71 -16 74 -14 2 3 5 22 6
43 1 37 0 38 -49 49 -67 16 -85 16 -90 2z"/>
<path d="M8010 2461 c-53 -16 -55 -19 -53 -50 0 -18 5 -37 10 -41 12 -12 143
31 143 46 0 22 -23 64 -34 63 -6 0 -36 -8 -66 -18z"/>
<path d="M4579 2384 l-15 -66 33 -16 c43 -20 50 -12 65 67 13 69 7 81 -42 81
-23 0 -27 -7 -41 -66z"/>
<path d="M7354 2386 c-3 -20 -4 -40 -1 -43 4 -3 37 -8 76 -11 l69 -5 7 33 c4
17 3 36 -1 40 -5 5 -39 11 -76 15 l-67 7 -7 -36z"/>
<path d="M7683 2403 c-19 -4 -23 -11 -23 -44 0 -44 1 -44 98 -32 l53 6 -3 36
c-3 36 -3 36 -53 37 -27 1 -60 0 -72 -3z"/>
<path d="M3455 2378 c-16 -6 -31 -12 -33 -13 -5 -4 50 -135 59 -141 7 -4 35 9
68 33 5 4 -51 133 -58 132 -3 0 -19 -5 -36 -11z"/>
<path d="M2452 2241 c-23 -27 -42 -53 -41 -58 0 -4 13 -18 28 -30 l28 -22 48
55 47 55 -23 25 c-12 13 -28 24 -34 24 -7 0 -31 -22 -53 -49z"/>
<path d="M4452 2137 c-23 -23 -42 -47 -42 -53 0 -6 11 -21 25 -34 l25 -24 41
40 c60 58 66 74 39 96 -32 26 -41 23 -88 -25z"/>
<path d="M3603 2115 l-28 -25 54 -50 c30 -28 60 -50 66 -50 6 0 19 14 29 30
l17 30 -48 45 c-26 24 -51 44 -55 45 -4 0 -20 -11 -35 -25z"/>
<path d="M2245 2038 c-28 -22 -52 -41 -53 -43 -7 -6 32 -65 43 -65 12 0 110
79 110 89 0 9 -28 46 -40 53 -6 3 -33 -12 -60 -34z"/>
<path d="M4212 1996 l-64 -21 6 -34 c3 -18 8 -36 10 -39 10 -9 137 30 143 43
4 11 -23 78 -30 73 -1 0 -31 -10 -65 -22z"/>
<path d="M3860 1965 c-5 -14 -10 -32 -10 -40 0 -14 41 -30 103 -39 34 -4 39
-2 48 21 16 43 8 57 -36 64 -22 3 -52 9 -67 14 -24 6 -29 3 -38 -20z"/>
<path d="M1998 1879 c-32 -16 -58 -33 -58 -38 0 -13 21 -71 26 -71 11 0 123
60 128 69 6 9 -24 71 -34 70 -3 0 -31 -13 -62 -30z"/>
<path d="M696 1786 c-117 -70 -115 -240 4 -305 86 -48 176 -26 234 56 59 84
28 206 -64 253 -54 28 -124 26 -174 -4z"/>
<path d="M1725 1772 c-51 -15 -60 -21 -63 -42 -2 -14 3 -33 10 -42 12 -17 17
-17 78 2 35 12 65 22 67 23 5 6 -18 77 -25 76 -4 0 -34 -8 -67 -17z"/>
<path d="M1408 1703 c-37 -4 -38 -6 -38 -43 0 -21 3 -41 8 -43 4 -2 37 0 75 6
60 9 67 13 67 33 0 54 -8 58 -112 47z"/>
<path d="M1070 1630 l0 -40 75 0 75 0 0 40 0 40 -75 0 -75 0 0 -40z"/>
</g>
</svg>
