<?xml version="1.0" standalone="no"?>
<!DOCTYPE svg PUBLIC "-//W3C//DTD SVG 20010904//EN"
 "http://www.w3.org/TR/2001/REC-SVG-20010904/DTD/svg10.dtd">
<svg version="1.0" xmlns="http://www.w3.org/2000/svg"
 width="512.000000pt" height="512.000000pt" viewBox="0 0 512.000000 512.000000"
 preserveAspectRatio="xMidYMid meet">

<g transform="translate(0.000000,512.000000) scale(0.100000,-0.100000)"
fill="#000000" stroke="none">
<path d="M2943 4541 c-17 -11 -37 -29 -42 -40 -8 -13 -11 -228 -11 -665 l0
-646 113 1 c80 0 105 3 89 10 -46 18 -21 40 93 83 l110 42 40 109 c54 146 64
146 116 6 20 -57 41 -107 46 -112 4 -4 55 -25 113 -47 109 -41 134 -63 88 -81
-15 -6 86 -10 291 -10 l313 -1 -4 81 c-3 77 -5 82 -36 110 -32 28 -34 29 -148
29 -171 0 -194 17 -194 140 l0 72 -50 -7 c-60 -8 -59 -11 -24 108 19 64 24
100 20 130 -11 73 -9 72 -173 75 -187 4 -228 -2 -265 -38 -25 -25 -28 -36 -28
-92 0 -114 -55 -158 -178 -144 -68 8 -99 29 -112 75 -6 21 -10 168 -10 347 l0
311 -30 -5 c-35 -5 -36 -1 -14 80 15 52 15 61 2 74 -25 25 -79 27 -115 5z"/>
<path d="M2418 2634 c-60 -32 -58 -8 -58 -774 l0 -702 -29 -29 c-29 -29 -31
-29 -145 -29 l-116 0 0 -469 0 -470 53 -10 c246 -49 628 -49 875 0 l52 10 0
922 -1 922 -41 20 c-48 24 -78 73 -78 127 0 36 -1 37 -46 44 -56 8 -108 50
-124 99 -11 35 -5 101 11 111 15 9 10 24 -8 24 -62 0 -193 97 -240 177 -28 48
-55 55 -105 27z"/>
</g>
</svg>
