<?xml version="1.0" standalone="no"?>
<!DOCTYPE svg PUBLIC "-//W3C//DTD SVG 20010904//EN"
 "http://www.w3.org/TR/2001/REC-SVG-20010904/DTD/svg10.dtd">
<svg version="1.0" xmlns="http://www.w3.org/2000/svg"
 width="512.000000pt" height="512.000000pt" viewBox="0 0 512.000000 512.000000"
 preserveAspectRatio="xMidYMid meet">

<g transform="translate(0.000000,512.000000) scale(0.100000,-0.100000)"
fill="#000000" stroke="none">
<path d="M2448 5101 c-75 -24 -118 -52 -172 -112 -86 -96 -115 -232 -77 -359
19 -60 20 -75 9 -85 -7 -7 -134 -113 -283 -236 l-270 -224 -650 -5 -650 -5
-75 -36 c-89 -43 -167 -112 -214 -193 -70 -118 -67 -19 -64 -1836 l3 -1635 24
-60 c62 -156 197 -272 353 -304 38 -8 684 -11 2208 -9 2092 3 2156 4 2205 22
113 43 212 128 264 226 65 121 61 13 60 1795 0 1498 -1 1625 -17 1686 -36 136
-127 243 -262 308 l-75 36 -646 3 -646 3 -279 230 c-153 127 -283 235 -287
239 -5 4 2 40 14 80 88 291 -185 563 -473 471z m-86 -682 c41 -30 140 -59 197
-59 59 0 142 24 199 56 41 24 43 25 65 7 108 -85 397 -329 397 -335 0 -4 -297
-8 -661 -8 -404 0 -659 4 -657 9 4 13 411 350 421 351 5 0 22 -10 39 -21z
m2422 -518 c66 -33 122 -91 155 -160 l26 -56 0 -1645 0 -1645 -28 -56 c-32
-66 -99 -132 -165 -162 l-47 -22 -2165 0 -2165 0 -47 22 c-66 30 -133 96 -165
162 l-28 56 -3 1624 c-3 1787 -6 1676 59 1774 34 51 96 100 157 122 31 11 385
13 2202 12 l2165 -2 49 -24z"/>
<path d="M3205 3631 c-76 -35 -129 -108 -141 -194 l-7 -46 -191 -3 c-173 -3
-195 -5 -231 -25 -53 -28 -89 -68 -115 -125 l-21 -48 -65 0 c-76 0 -126 -18
-172 -63 -57 -54 -76 -102 -76 -187 0 -98 28 -164 95 -224 76 -69 110 -76 344
-76 l202 0 12 -52 c6 -29 23 -73 36 -97 14 -23 25 -45 25 -47 0 -2 -22 -4 -49
-4 -45 0 -49 2 -56 28 -19 79 -100 142 -184 142 -202 0 -400 -146 -463 -343
-27 -83 -30 -248 -6 -327 53 -172 228 -310 393 -310 32 0 52 -7 72 -24 l28
-24 5 -244 c5 -266 7 -273 71 -337 46 -46 86 -63 160 -69 180 -13 369 114 440
296 20 50 23 80 27 248 l4 191 54 23 c103 42 183 148 199 263 9 57 -6 100 -41
116 -14 6 -57 11 -96 11 -122 0 -198 56 -214 158 l-7 42 87 0 c79 0 89 2 111
25 24 23 25 30 25 148 0 82 4 127 12 135 16 16 53 15 66 -1 6 -7 12 -93 14
-212 3 -192 4 -202 28 -245 66 -118 216 -145 316 -57 62 54 68 76 74 246 4
132 7 155 23 165 12 8 22 8 35 0 13 -9 18 -30 22 -105 7 -110 12 -123 51 -139
39 -16 136 2 202 38 67 36 141 120 168 190 18 46 23 86 28 208 l6 151 44 34
c62 47 91 106 91 184 0 85 27 125 94 142 78 19 89 35 84 123 -6 133 -72 237
-190 301 l-63 34 -287 3 c-268 3 -289 2 -325 -16 -67 -35 -113 -104 -113 -172
0 -37 -31 -70 -65 -70 -34 0 -65 33 -65 70 0 67 -46 137 -112 171 -32 16 -59
19 -195 19 -131 0 -165 -4 -198 -19z m339 -147 c9 -8 16 -29 16 -45 0 -105
102 -199 215 -199 113 0 215 94 215 199 0 59 7 61 273 61 214 0 247 -3 282
-19 49 -23 89 -64 110 -114 15 -37 15 -37 -10 -47 -86 -33 -145 -123 -153
-234 -5 -78 -27 -116 -68 -116 -13 0 -36 -11 -51 -24 l-28 -24 -5 -199 c-5
-186 -6 -200 -29 -236 -21 -34 -84 -87 -103 -87 -5 0 -8 23 -8 50 0 113 -79
190 -193 190 -71 0 -135 -40 -166 -102 -18 -39 -21 -62 -21 -186 0 -129 -2
-144 -20 -162 -24 -24 -47 -25 -72 -3 -16 14 -18 34 -18 195 0 217 -8 257 -65
314 -96 95 -249 73 -312 -45 -19 -37 -23 -59 -23 -133 l0 -88 -62 0 c-157 2
-252 89 -267 246 -11 118 -2 114 -292 114 -268 0 -294 5 -329 62 -30 49 -28
131 5 163 22 23 31 25 129 25 94 0 107 2 131 23 19 17 27 35 32 76 10 91 10
91 251 91 216 0 275 8 292 40 5 10 10 46 10 80 0 67 18 122 47 139 10 6 73 11
145 11 102 0 130 -3 142 -16z m-906 -1036 c7 -7 12 -35 12 -64 0 -36 6 -59 19
-75 19 -24 23 -24 219 -27 l199 -3 6 -56 c15 -146 142 -276 283 -290 30 -3 54
-10 54 -16 0 -5 -17 -26 -38 -47 -35 -36 -91 -60 -138 -60 -11 0 -30 -10 -41
-22 -20 -22 -22 -36 -25 -248 -3 -205 -5 -229 -25 -272 -50 -109 -155 -181
-265 -182 -47 -1 -62 3 -80 22 -22 22 -23 29 -28 266 l-5 243 -30 49 c-43 68
-102 102 -196 113 -41 5 -91 15 -111 24 -56 24 -123 91 -148 149 -19 45 -22
65 -18 157 4 124 25 178 94 247 49 49 84 69 156 88 67 18 91 19 106 4z"/>
<path d="M654 3589 c-12 -14 -20 -43 -25 -92 -6 -64 -10 -74 -42 -103 -28 -26
-47 -34 -93 -39 -75 -9 -111 -24 -158 -65 -58 -51 -80 -103 -80 -185 0 -80 20
-129 76 -182 49 -48 101 -65 208 -71 102 -5 130 -17 130 -57 0 -42 -29 -55
-127 -55 -148 0 -173 -19 -173 -129 0 -181 88 -349 233 -442 32 -21 82 -45
110 -54 29 -9 58 -18 65 -21 9 -2 6 -14 -12 -41 -62 -96 -71 -241 -22 -348 51
-111 175 -207 287 -222 l39 -6 0 -347 c0 -336 1 -348 21 -374 17 -22 28 -26
69 -26 58 0 153 28 212 63 54 32 139 121 167 175 32 64 51 148 51 233 l0 76
49 6 c135 16 243 130 258 270 14 132 -76 266 -207 310 -39 13 -46 20 -56 54
-54 187 -235 323 -430 323 l-34 0 0 89 0 90 53 15 c58 17 157 73 200 114 66
62 117 162 141 273 5 23 11 26 90 36 54 6 104 20 140 37 189 93 267 323 174
510 -31 60 -111 139 -175 172 l-58 29 -230 3 c-254 4 -254 4 -270 -60 -6 -22
-1 -33 23 -58 l30 -30 188 0 c218 0 252 -7 311 -67 90 -89 91 -223 4 -316 -47
-51 -77 -61 -208 -67 -149 -6 -154 -10 -164 -111 -11 -103 -34 -161 -86 -219
-57 -64 -125 -99 -210 -109 -54 -6 -71 -13 -90 -35 -22 -26 -23 -35 -23 -163
l0 -135 -112 3 c-99 4 -120 8 -170 32 -31 15 -75 47 -99 70 -45 45 -94 139
-102 198 l-5 36 72 5 c90 6 148 35 191 96 27 39 30 52 30 117 0 65 -3 78 -30
117 -48 68 -99 90 -219 96 -56 2 -109 9 -119 14 -31 16 -50 74 -37 114 14 40
45 59 115 68 116 15 212 93 243 198 l17 58 117 0 c126 0 160 9 177 47 16 34
14 47 -10 77 l-20 26 -188 0 c-177 0 -189 -1 -207 -21z m672 -1528 c95 -43
158 -133 171 -243 8 -65 27 -83 92 -91 73 -9 112 -34 139 -89 28 -56 23 -104
-16 -150 -35 -42 -79 -58 -155 -58 -49 0 -70 -5 -90 -20 -24 -19 -25 -24 -29
-162 -3 -117 -8 -151 -25 -189 -29 -64 -76 -114 -136 -144 l-52 -26 -5 352 -5
351 -24 19 c-17 14 -39 19 -85 19 -127 1 -219 74 -241 193 -16 85 40 193 124
237 52 28 276 28 337 1z"/>
<path d="M4734 2979 c-49 -18 -54 -41 -54 -236 0 -175 1 -183 23 -207 32 -36
74 -39 107 -6 19 19 20 33 20 211 0 105 -4 199 -10 209 -13 23 -59 39 -86 29z"/>
<path d="M4205 1745 c-30 -29 -32 -64 -6 -96 18 -23 28 -24 158 -30 159 -7
191 -18 263 -85 72 -67 94 -126 95 -249 0 -93 -2 -104 -30 -154 -53 -95 -121
-130 -266 -138 l-97 -6 -27 62 c-34 75 -112 151 -182 176 -32 12 -90 19 -175
22 l-128 5 0 62 c0 35 7 83 16 109 20 59 82 129 144 163 58 31 74 65 55 111
-13 31 -32 43 -66 43 -37 0 -123 -52 -175 -106 -97 -99 -139 -227 -133 -404 6
-135 3 -134 232 -140 170 -5 184 -6 215 -28 36 -27 72 -88 72 -126 0 -37 19
-72 47 -85 31 -14 256 -14 325 0 124 26 234 115 290 236 26 55 32 81 36 162 2
54 -1 121 -7 152 -36 175 -175 320 -342 358 -24 6 -99 11 -167 11 -117 0 -124
-1 -147 -25z"/>
<path d="M385 715 c-14 -13 -25 -36 -25 -50 0 -14 11 -37 25 -50 l24 -25 234
0 c222 0 236 1 261 21 34 27 36 77 3 107 -23 21 -31 22 -261 22 l-237 0 -24
-25z"/>
<path d="M385 485 c-14 -13 -25 -36 -25 -50 0 -14 11 -37 25 -50 l24 -25 466
0 466 0 24 25 c34 33 33 77 -1 104 -26 21 -36 21 -491 21 l-464 0 -24 -25z"/>
</g>
</svg>
