<?xml version="1.0" standalone="no"?>
<!DOCTYPE svg PUBLIC "-//W3C//DTD SVG 20010904//EN"
 "http://www.w3.org/TR/2001/REC-SVG-20010904/DTD/svg10.dtd">
<svg version="1.0" xmlns="http://www.w3.org/2000/svg"
 width="512.000000pt" height="512.000000pt" viewBox="0 0 512.000000 512.000000"
 preserveAspectRatio="xMidYMid meet">

<g transform="translate(0.000000,512.000000) scale(0.100000,-0.100000)"
fill="#000000" stroke="none">
<path d="M1330 3467 c-104 -29 -144 -73 -484 -519 l-59 -78 44 -54 c91 -111
145 -123 289 -64 47 20 99 38 116 41 76 14 145 -36 179 -129 66 -185 109 -212
249 -159 131 49 178 32 261 -95 24 -38 53 -73 64 -79 25 -14 92 -14 128 0 72
27 133 38 167 28 19 -5 67 -37 106 -69 75 -62 103 -76 145 -68 l25 5 0 -92 0
-92 42 -19 c64 -29 146 -84 332 -222 l168 -126 42 23 c149 85 357 273 545 491
138 161 480 591 481 605 0 6 -32 63 -72 128 -61 98 -75 115 -83 101 -23 -39
-89 -110 -119 -127 -42 -24 -73 -15 -122 39 -36 39 -46 44 -85 44 -55 0 -88
-20 -172 -104 -36 -35 -81 -73 -99 -82 -47 -24 -106 -22 -157 7 -46 25 -79 67
-251 313 -116 164 -148 196 -203 196 -29 0 -47 -9 -87 -45 -61 -54 -93 -64
-132 -42 l-28 16 0 -190 c0 -172 -2 -190 -17 -195 -10 -3 -74 -33 -143 -67
-119 -59 -128 -62 -200 -62 -148 0 -236 70 -356 285 -177 313 -242 409 -304
440 -51 26 -150 34 -210 17z"/>
<path d="M1767 2076 c-4 -26 -21 -109 -38 -184 -33 -150 -33 -211 1 -269 10
-17 16 -41 13 -52 -4 -15 -1 -21 11 -21 12 0 16 -9 16 -35 0 -28 4 -35 20 -35
17 0 20 7 20 53 1 51 1 52 40 70 52 24 84 77 83 136 0 35 -16 78 -65 181 -35
74 -71 151 -80 170 l-15 34 -6 -48z"/>
<path d="M686 1877 c-16 -78 -44 -207 -63 -287 -31 -130 -34 -156 -30 -250 5
-114 21 -166 65 -213 14 -15 20 -27 14 -27 -7 0 -12 -13 -12 -30 0 -25 4 -30
25 -30 24 0 25 -3 25 -60 l0 -60 30 0 30 0 0 88 0 87 48 17 c54 19 122 82 148
136 11 22 20 67 22 112 l4 75 -82 164 c-45 91 -104 219 -132 285 -27 67 -53
124 -57 128 -3 4 -19 -57 -35 -135z"/>
<path d="M1300 1910 c0 -14 -21 -115 -45 -225 -58 -258 -58 -334 1 -412 14
-19 20 -34 14 -38 -19 -12 -11 -44 13 -47 17 -2 23 -11 27 -43 l5 -39 18 26
c9 15 17 45 17 67 0 36 3 40 33 50 39 13 91 61 115 105 9 18 16 54 16 86 0 46
-8 71 -51 156 -28 55 -72 150 -98 210 -51 119 -65 142 -65 104z"/>
<path d="M2082 1798 c-7 -40 -28 -140 -48 -223 -51 -216 -47 -334 12 -405 14
-16 21 -30 15 -30 -6 0 -11 -11 -11 -25 0 -20 5 -25 25 -25 24 0 25 -3 25 -60
0 -33 2 -60 4 -60 30 0 36 16 36 89 l0 76 45 19 c78 32 135 119 135 206 0 20
-34 106 -88 224 -49 105 -98 212 -108 238 -10 27 -21 48 -25 48 -3 0 -11 -33
-17 -72z"/>
<path d="M1541 1242 c-19 -87 -36 -179 -39 -205 -5 -54 13 -130 34 -148 8 -7
11 -21 8 -35 -5 -18 -2 -24 10 -24 12 0 16 -10 16 -36 0 -54 24 -37 28 20 3
40 7 48 30 57 34 13 70 46 88 81 25 48 17 102 -26 188 -22 43 -56 118 -76 167
-20 48 -37 89 -38 90 0 1 -16 -69 -35 -155z"/>
<path d="M1062 1262 c-12 -65 -37 -176 -53 -247 -46 -194 -36 -317 34 -393 11
-12 15 -22 9 -22 -23 0 -13 -38 11 -42 19 -3 22 -10 25 -48 2 -32 9 -49 22
-58 19 -12 20 -9 20 67 l0 79 37 13 c51 16 119 82 139 135 30 78 18 130 -73
320 -44 93 -93 202 -109 241 -16 40 -31 73 -34 73 -3 0 -15 -53 -28 -118z"/>
</g>
</svg>
