<?xml version="1.0" standalone="no"?>
<!DOCTYPE svg PUBLIC "-//W3C//DTD SVG 20010904//EN"
 "http://www.w3.org/TR/2001/REC-SVG-20010904/DTD/svg10.dtd">
<svg version="1.0" xmlns="http://www.w3.org/2000/svg"
 width="512.000000pt" height="512.000000pt" viewBox="0 0 512.000000 512.000000"
 preserveAspectRatio="xMidYMid meet">

<g transform="translate(0.000000,512.000000) scale(0.100000,-0.100000)"
fill="#000000" stroke="none">
<path d="M1565 4948 c-11 -5 -120 -131 -243 -279 l-224 -269 -429 0 -429 0 0
-960 0 -960 1360 0 1360 0 0 960 0 960 -429 0 -429 0 -224 269 c-123 148 -233
274 -246 280 -27 13 -40 13 -67 -1z m183 -368 c78 -93 142 -172 142 -175 0 -3
-130 -5 -290 -5 -159 0 -290 2 -290 5 0 9 283 345 290 345 4 0 70 -76 148
-170z m892 -1137 l0 -638 -238 238 -238 238 -253 -152 -253 -152 -147 147
c-80 80 -149 146 -153 146 -4 0 -172 -99 -374 -221 -203 -121 -381 -227 -396
-235 l-28 -15 0 641 0 640 1040 0 1040 0 0 -637z"/>
<path d="M3404 4788 c-12 -5 -27 -21 -33 -34 -15 -35 -15 -993 0 -1027 6 -14
22 -30 36 -36 34 -15 1152 -15 1186 0 14 6 30 22 36 36 8 16 11 176 11 513 0
337 -3 497 -11 513 -6 14 -22 30 -36 36 -32 15 -1159 14 -1189 -1z m836 -396
c0 -5 -18 -95 -39 -202 l-39 -193 24 -70 c13 -39 24 -74 24 -79 0 -4 -94 -8
-210 -8 -115 0 -210 4 -210 8 0 5 11 40 24 79 l24 70 -39 193 c-21 107 -39
197 -39 202 0 4 108 8 240 8 132 0 240 -4 240 -8z"/>
<path d="M3404 3428 c-12 -5 -27 -21 -33 -34 -16 -35 -16 -1313 0 -1347 6 -14
22 -30 36 -36 34 -15 1152 -15 1186 0 14 6 30 22 36 36 16 34 16 1312 0 1346
-6 14 -22 30 -36 36 -32 15 -1159 14 -1189 -1z m1076 -708 l0 -560 -119 0
-119 0 -4 193 c-3 173 -6 196 -25 232 -35 66 -112 125 -163 125 -32 0 -23 13
23 35 45 22 87 86 87 135 0 14 -10 46 -22 70 -25 48 -89 90 -138 90 -49 0
-113 -42 -137 -90 -13 -24 -23 -56 -23 -70 0 -49 42 -113 87 -135 46 -22 55
-35 23 -35 -51 0 -128 -59 -163 -125 -19 -36 -22 -59 -25 -232 l-4 -193 -119
0 -119 0 0 560 0 560 480 0 480 0 0 -560z"/>
<path d="M608 1691 c2 -33 -1 -69 -8 -80 -6 -12 -9 -21 -7 -21 2 0 66 -13 143
-29 491 -104 964 -107 1449 -10 55 11 116 24 135 29 l35 9 0 79 0 79 -35 -9
c-444 -108 -890 -130 -1324 -68 -121 18 -345 62 -380 76 -8 3 -10 -14 -8 -55z"/>
<path d="M2768 1691 c2 -33 -1 -68 -7 -79 -10 -19 -5 -22 82 -41 513 -117
1041 -119 1560 -7 65 14 121 26 123 26 3 0 0 9 -6 21 -7 11 -10 47 -8 80 2 41
0 58 -8 55 -35 -14 -259 -58 -380 -76 -398 -57 -840 -41 -1218 45 -60 14 -116
27 -125 30 -14 4 -16 -4 -13 -54z"/>
<path d="M320 1058 l0 -418 80 0 80 0 0 418 0 417 -80 0 -80 0 0 -417z"/>
<path d="M2480 1058 l0 -418 80 0 80 0 0 418 0 417 -80 0 -80 0 0 -417z"/>
<path d="M4640 1058 l0 -418 80 0 80 0 0 418 0 417 -80 0 -80 0 0 -417z"/>
<path d="M761 1190 c-45 -11 -100 -68 -111 -113 -18 -82 36 -169 116 -187 51
-12 1297 -12 1348 0 80 18 134 105 116 187 -11 48 -66 102 -116 113 -48 12
-1306 11 -1353 0z"/>
<path d="M3001 1190 c-45 -11 -100 -68 -111 -113 -18 -82 36 -169 116 -187 51
-12 1297 -12 1348 0 50 11 105 65 116 113 18 82 -36 169 -116 187 -48 12
-1306 11 -1353 0z"/>
</g>
</svg>
