<?xml version="1.0" standalone="no"?>
<!DOCTYPE svg PUBLIC "-//W3C//DTD SVG 20010904//EN"
 "http://www.w3.org/TR/2001/REC-SVG-20010904/DTD/svg10.dtd">
<svg version="1.0" xmlns="http://www.w3.org/2000/svg"
 width="512.000000pt" height="512.000000pt" viewBox="0 0 512.000000 512.000000"
 preserveAspectRatio="xMidYMid meet">

<g transform="translate(0.000000,512.000000) scale(0.100000,-0.100000)"
fill="#000000" stroke="none">
<path d="M4320 4800 l0 -160 -160 0 -160 0 0 -160 0 -160 160 0 160 0 0 -320
0 -320 160 0 160 0 0 320 0 320 160 0 160 0 0 160 0 160 -160 0 -160 0 0 160
0 160 -160 0 -160 0 0 -160z"/>
<path d="M1081 4470 c-35 -75 -29 -72 -145 -88 l-50 -7 59 -63 58 -63 -12 -69
c-6 -38 -11 -74 -11 -80 0 -6 31 6 70 26 l70 38 70 -38 c39 -20 70 -32 70 -26
0 6 -5 43 -12 81 l-11 70 56 57 c32 32 57 60 57 64 0 3 -26 9 -57 13 -97 11
-97 11 -133 86 -19 38 -37 69 -40 69 -4 0 -21 -31 -39 -70z"/>
<path d="M2484 3191 c-49 -12 -134 -63 -160 -94 -14 -17 -37 -53 -52 -81 -22
-43 -26 -64 -26 -136 -1 -78 2 -90 33 -148 19 -35 48 -74 64 -88 38 -32 120
-73 149 -76 13 -1 -58 -4 -157 -8 -169 -5 -183 -7 -231 -32 -75 -39 -107 -70
-145 -140 l-34 -63 -3 -341 -3 -342 58 -35 c199 -118 350 -160 583 -160 233 0
384 42 583 160 l58 35 -3 342 -3 341 -27 51 c-40 76 -70 107 -140 145 l-63 34
-179 3 -179 4 51 17 c110 37 176 107 209 220 30 105 -11 251 -90 317 -78 65
-205 98 -293 75z"/>
<path d="M746 1811 c-9 -10 -58 -96 -109 -192 l-93 -174 -208 -5 -208 -5 -24
-28 c-13 -15 -24 -36 -24 -45 0 -9 45 -101 100 -204 55 -103 100 -192 100
-198 0 -6 -45 -95 -100 -198 -55 -103 -100 -195 -100 -204 0 -9 11 -30 24 -45
l24 -28 208 -5 208 -5 93 -175 c155 -292 171 -292 326 0 l93 175 208 5 208 5
24 28 c13 15 24 36 24 45 0 9 -45 101 -100 204 -55 103 -100 192 -100 198 0 6
45 95 100 198 55 103 100 195 100 204 0 9 -11 30 -24 45 l-24 28 -208 5 -208
5 -93 174 c-51 96 -100 182 -109 192 -23 25 -85 25 -108 0z m97 -296 l37 -75
-80 0 -80 0 37 75 c21 41 40 75 43 75 3 0 22 -34 43 -75z m-393 -241 c0 -16
-75 -143 -81 -136 -3 4 -23 37 -43 75 l-37 67 81 0 c44 0 80 -3 80 -6z m603
-154 l86 -160 -86 -160 -85 -160 -168 0 -168 0 -85 160 -86 160 86 160 85 160
168 0 168 0 85 -160z m221 93 c-20 -38 -40 -71 -43 -75 -6 -7 -81 120 -81 136
0 3 36 6 80 6 l81 0 -37 -67z m-844 -523 c12 -23 19 -44 17 -46 -3 -3 -38 -4
-80 -2 l-75 3 40 73 41 73 18 -30 c10 -16 28 -49 39 -71z m844 18 l37 -68 -81
0 c-44 0 -80 3 -80 6 0 16 75 143 81 136 3 -4 23 -37 43 -74z m-431 -303 c-21
-41 -40 -75 -43 -75 -3 0 -22 34 -43 75 l-37 75 80 0 80 0 -37 -75z"/>
<path d="M4384 1566 c69 -35 140 -108 173 -180 24 -52 28 -74 28 -146 0 -110
-32 -186 -111 -260 -67 -63 -120 -87 -221 -100 -104 -13 -158 -33 -218 -78
-54 -40 -109 -122 -126 -187 -6 -22 -9 -76 -7 -120 11 -219 193 -357 428 -325
239 33 443 176 544 381 61 126 79 200 79 329 0 129 -18 203 -80 330 -93 190
-291 338 -503 375 -33 6 -33 5 14 -19z m-89 -1031 c50 -49 15 -135 -55 -135
-41 0 -80 39 -80 80 0 41 39 80 80 80 19 0 40 -9 55 -25z"/>
<path d="M4189 1331 c-16 -16 -29 -39 -29 -51 0 -28 52 -80 80 -80 28 0 80 52
80 80 0 28 -52 80 -80 80 -12 0 -35 -13 -51 -29z"/>
</g>
</svg>
