<?xml version="1.0" standalone="no"?>
<!DOCTYPE svg PUBLIC "-//W3C//DTD SVG 20010904//EN"
 "http://www.w3.org/TR/2001/REC-SVG-20010904/DTD/svg10.dtd">
<svg version="1.0" xmlns="http://www.w3.org/2000/svg"
 width="512.000000pt" height="512.000000pt" viewBox="0 0 512.000000 512.000000"
 preserveAspectRatio="xMidYMid meet">

<g transform="translate(0.000000,512.000000) scale(0.100000,-0.100000)"
fill="#000000" stroke="none">
<path d="M2925 5025 c-818 -132 -1438 -752 -1560 -1561 -29 -196 -15 -512 31
-699 51 -204 148 -426 258 -590 l67 -99 -170 -170 -169 -169 -27 22 c-33 25
-102 28 -143 7 -15 -8 -261 -250 -548 -538 -608 -610 -579 -573 -579 -753 0
-101 2 -115 29 -170 38 -77 114 -153 191 -191 55 -26 69 -29 165 -29 184 0
149 -27 758 579 288 287 531 534 539 551 23 43 20 101 -7 137 l-22 30 169 170
169 169 99 -67 c223 -150 484 -249 765 -290 159 -23 449 -15 604 16 749 149
1315 717 1468 1471 20 99 23 143 23 344 0 201 -3 245 -23 344 -151 747 -706
1310 -1446 1467 -104 22 -152 27 -336 30 -155 2 -240 -1 -305 -11z m598 -164
c607 -122 1091 -552 1282 -1136 66 -201 80 -295 80 -535 0 -172 -4 -223 -23
-316 -123 -609 -559 -1104 -1140 -1294 -194 -63 -275 -74 -522 -75 -199 0
-238 3 -334 23 -608 130 -1084 548 -1279 1122 -69 201 -81 286 -81 545 0 202
2 243 22 335 114 527 444 953 917 1186 147 72 269 114 418 143 145 29 151 29
362 26 147 -2 214 -7 298 -24z m-1573 -3046 c0 -6 -72 -82 -160 -170 l-160
-160 -72 73 -73 72 165 165 165 165 67 -67 c38 -37 68 -72 68 -78z m-495 -365
l170 -170 -500 -501 c-288 -288 -516 -509 -539 -521 -157 -82 -355 32 -356
206 0 111 -20 88 534 644 281 281 513 512 516 512 3 0 82 -77 175 -170z"/>
<path d="M3036 4580 c-606 -77 -1079 -513 -1208 -1113 -31 -145 -31 -399 0
-544 120 -563 532 -974 1095 -1095 145 -31 399 -31 544 0 560 121 975 535
1095 1095 31 145 31 399 0 544 -63 294 -193 526 -410 734 -196 189 -418 305
-684 359 -115 24 -326 33 -432 20z m392 -165 c437 -84 802 -403 942 -823 49
-150 63 -233 63 -397 0 -215 -40 -382 -134 -565 -175 -342 -496 -582 -877
-657 -116 -22 -337 -22 -452 0 -455 89 -820 412 -958 847 -43 137 -57 227 -56
380 1 347 135 658 387 896 191 181 437 298 702 333 92 13 279 6 383 -14z"/>
<path d="M3142 4075 c-27 -34 -28 -65 -4 -95 15 -19 33 -24 116 -31 375 -35
667 -326 693 -691 5 -78 10 -96 29 -115 29 -29 63 -29 99 -1 28 22 28 22 22
117 -26 441 -396 811 -838 838 -95 6 -95 6 -117 -22z"/>
</g>
</svg>
