<?xml version="1.0" standalone="no"?>
<!DOCTYPE svg PUBLIC "-//W3C//DTD SVG 20010904//EN"
 "http://www.w3.org/TR/2001/REC-SVG-20010904/DTD/svg10.dtd">
<svg version="1.0" xmlns="http://www.w3.org/2000/svg"
 width="512.000000pt" height="512.000000pt" viewBox="0 0 512.000000 512.000000"
 preserveAspectRatio="xMidYMid meet">

<g transform="translate(0.000000,512.000000) scale(0.100000,-0.100000)"
fill="#000000" stroke="none">
<path d="M2762 4633 c-6 -16 -49 -127 -96 -249 -67 -173 -87 -236 -91 -290 -7
-83 -20 -136 -47 -188 -18 -35 -19 -47 -10 -102 33 -202 228 -363 437 -364
165 0 309 76 394 208 28 44 271 651 271 678 0 7 -26 14 -67 18 -93 9 -280 52
-361 82 -86 33 -192 90 -315 170 -54 35 -99 64 -101 64 -2 0 -9 -12 -14 -27z
m208 -353 c12 -12 20 -33 20 -55 0 -46 -29 -75 -74 -75 -39 0 -76 37 -76 75 0
12 9 34 21 49 26 33 79 36 109 6z m309 -126 c27 -34 27 -72 -1 -101 -45 -49
-128 -16 -128 51 0 69 87 103 129 50z m-299 -266 c56 -28 90 -78 90 -129 0
-22 -3 -39 -7 -39 -4 0 -72 25 -151 56 -138 54 -143 57 -129 77 19 29 76 57
117 57 20 0 56 -10 80 -22z"/>
</g>
</svg>
